/* XPM */
static char * title_1_inactive_xpm[] = {
"2 24 4 1",
" 	c None",
".	c #FFFFFF",
"+	c #4A4A4A",
"@	c #444444",
"  ",
"  ",
"..",
"  ",
"  ",
"  ",
"  ",
"  ",
"  ",
"  ",
"  ",
"  ",
"  ",
"  ",
"  ",
"  ",
"  ",
"  ",
"  ",
"  ",
"  ",
"  ",
"  ",
"+@"};
